<svg width="1200" height="1200" xmlns="http://www.w3.org/2000/svg" xmlns:xlink="http://www.w3.org/1999/xlink" version="1.1"><g transform="scale(24.220590171496504) translate(-25.22783554924859, -25.227684868706596)">                        <g fill="#2563eb"><g xmlns="http://www.w3.org/2000/svg"><path d="M32.177,44.417c1.744,0,3.377-0.941,4.265-2.456c0.35-0.599,0.991-0.97,1.674-0.97c0.689,0,1.329,0.368,1.675,0.97   c0.887,1.515,2.522,2.456,4.27,2.456c1.744,0,3.377-0.941,4.265-2.458c0.349-0.597,0.99-0.968,1.674-0.968   c0.696,0,1.32,0.361,1.672,0.967c0.884,1.517,2.52,2.459,4.271,2.459c1.747,0,3.382-0.941,4.266-2.457   c0.35-0.598,0.99-0.969,1.674-0.969c0.687,0,1.328,0.37,1.676,0.968c0.885,1.517,2.518,2.458,4.262,2.458   c1.752,0,3.388-0.942,4.271-2.46c0.416-0.716,0.173-1.634-0.543-2.051c-0.715-0.415-1.635-0.173-2.051,0.543   c-0.347,0.597-0.99,0.968-1.677,0.968c-0.682,0-1.321-0.371-1.669-0.968c-0.881-1.516-2.517-2.458-4.269-2.458   c-1.745,0-3.379,0.94-4.265,2.456c-0.349,0.599-0.991,0.97-1.675,0.97c-0.687,0-1.33-0.371-1.677-0.968   c-0.881-1.516-2.516-2.458-4.266-2.458c-1.747,0-3.381,0.941-4.264,2.454c-0.351,0.6-0.993,0.972-1.675,0.972   c-0.686,0-1.33-0.372-1.675-0.962c-0.875-1.52-2.511-2.464-4.27-2.464c-1.744,0-3.378,0.94-4.263,2.454   c-0.351,0.6-0.993,0.972-1.675,0.972c-0.684,0-1.326-0.372-1.675-0.97c-0.418-0.717-1.336-0.959-2.052-0.539   c-0.715,0.417-0.957,1.336-0.539,2.051C28.796,43.476,30.431,44.417,32.177,44.417z"/><path d="M71.547,48.701c-0.715-0.414-1.635-0.174-2.051,0.543c-0.348,0.598-0.99,0.969-1.677,0.969c-0.682,0-1.321-0.372-1.67-0.97   c-0.882-1.515-2.517-2.456-4.268-2.456c-1.744,0-3.377,0.939-4.265,2.455c-0.35,0.599-0.991,0.971-1.675,0.971   c-0.687,0-1.329-0.371-1.678-0.97c-0.882-1.515-2.516-2.456-4.265-2.456c-1.746,0-3.38,0.94-4.264,2.453   c-0.351,0.6-0.993,0.973-1.675,0.973c-0.686,0-1.33-0.373-1.676-0.964c-0.876-1.519-2.512-2.462-4.269-2.462   c-1.743,0-3.376,0.939-4.263,2.453c-0.351,0.6-0.993,0.973-1.675,0.973c-0.684,0-1.325-0.372-1.675-0.971   c-0.418-0.717-1.336-0.959-2.052-0.539c-0.715,0.417-0.957,1.336-0.539,2.051c0.885,1.517,2.52,2.459,4.266,2.459   c1.743,0,3.377-0.941,4.264-2.456c0.351-0.599,0.992-0.97,1.675-0.97c0.688,0,1.329,0.368,1.675,0.969   c0.887,1.516,2.523,2.457,4.27,2.457c1.743,0,3.377-0.941,4.265-2.458c0.349-0.597,0.991-0.968,1.675-0.968   c0.695,0,1.32,0.361,1.672,0.966c0.884,1.518,2.521,2.46,4.271,2.46c1.746,0,3.381-0.942,4.265-2.457   c0.351-0.598,0.992-0.969,1.675-0.969c0.687,0,1.328,0.37,1.676,0.967c0.885,1.517,2.518,2.459,4.262,2.459   c1.752,0,3.388-0.943,4.271-2.461C72.506,50.036,72.263,49.118,71.547,48.701z"/><path d="M71.547,57.497c-0.715-0.414-1.635-0.174-2.051,0.543c-0.348,0.598-0.99,0.969-1.677,0.969   c-0.682,0-1.321-0.372-1.669-0.969c-0.882-1.516-2.518-2.457-4.269-2.457c-1.745,0-3.378,0.94-4.265,2.455   c-0.35,0.599-0.991,0.971-1.675,0.971c-0.687,0-1.329-0.371-1.677-0.969c-0.882-1.516-2.516-2.457-4.266-2.457   c-1.747,0-3.381,0.94-4.264,2.453c-0.351,0.6-0.993,0.973-1.675,0.973c-0.686,0-1.33-0.373-1.675-0.964   c-0.875-1.519-2.511-2.462-4.27-2.462c-1.744,0-3.377,0.94-4.263,2.453c-0.351,0.6-0.993,0.973-1.675,0.973   c-0.684,0-1.325-0.372-1.675-0.971c-0.418-0.718-1.336-0.96-2.052-0.539c-0.715,0.417-0.957,1.336-0.539,2.051   c0.885,1.517,2.52,2.459,4.266,2.459c1.743,0,3.377-0.941,4.264-2.457c0.35-0.598,0.992-0.969,1.674-0.969   c0.689,0,1.329,0.368,1.675,0.969c0.887,1.516,2.523,2.457,4.27,2.457c1.743,0,3.377-0.941,4.265-2.458   c0.348-0.597,0.99-0.968,1.674-0.968c0.696,0,1.32,0.36,1.672,0.966c0.884,1.518,2.521,2.46,4.271,2.46   c1.746,0,3.381-0.942,4.266-2.457c0.349-0.598,0.99-0.969,1.674-0.969c0.687,0,1.328,0.37,1.676,0.967   c0.885,1.517,2.518,2.459,4.262,2.459c1.752,0,3.388-0.943,4.271-2.461C72.506,58.832,72.263,57.914,71.547,57.497z"/></g></g>        </g></svg>