
        <svg xmlns="http://www.w3.org/2000/svg" xmlns:xlink="http://www.w3.org/1999/xlink" version="1.1" width="3161.995664904742" height="430.8337981288645" viewBox="0 0 3161.995664904742 430.8337981288645">
			
			<g transform="scale(8.099783245237099) translate(10, 10)">
				<defs id="SvgjsDefs1001"/><g id="SvgjsG1007" featureKey="odWo6G-0" transform="matrix(1.3819129108019979,0,0,1.3819129108019979,-38.2859893409773,-52.5002496830868)" fill="#fff"><g xmlns="http://www.w3.org/2000/svg"><path d="M32.177,44.417c1.744,0,3.377-0.941,4.265-2.456c0.35-0.599,0.991-0.97,1.674-0.97c0.689,0,1.329,0.368,1.675,0.97   c0.887,1.515,2.522,2.456,4.27,2.456c1.744,0,3.377-0.941,4.265-2.458c0.349-0.597,0.99-0.968,1.674-0.968   c0.696,0,1.32,0.361,1.672,0.967c0.884,1.517,2.52,2.459,4.271,2.459c1.747,0,3.382-0.941,4.266-2.457   c0.35-0.598,0.99-0.969,1.674-0.969c0.687,0,1.328,0.37,1.676,0.968c0.885,1.517,2.518,2.458,4.262,2.458   c1.752,0,3.388-0.942,4.271-2.46c0.416-0.716,0.173-1.634-0.543-2.051c-0.715-0.415-1.635-0.173-2.051,0.543   c-0.347,0.597-0.99,0.968-1.677,0.968c-0.682,0-1.321-0.371-1.669-0.968c-0.881-1.516-2.517-2.458-4.269-2.458   c-1.745,0-3.379,0.94-4.265,2.456c-0.349,0.599-0.991,0.97-1.675,0.97c-0.687,0-1.33-0.371-1.677-0.968   c-0.881-1.516-2.516-2.458-4.266-2.458c-1.747,0-3.381,0.941-4.264,2.454c-0.351,0.6-0.993,0.972-1.675,0.972   c-0.686,0-1.33-0.372-1.675-0.962c-0.875-1.52-2.511-2.464-4.27-2.464c-1.744,0-3.378,0.94-4.263,2.454   c-0.351,0.6-0.993,0.972-1.675,0.972c-0.684,0-1.326-0.372-1.675-0.97c-0.418-0.717-1.336-0.959-2.052-0.539   c-0.715,0.417-0.957,1.336-0.539,2.051C28.796,43.476,30.431,44.417,32.177,44.417z"/><path d="M71.547,48.701c-0.715-0.414-1.635-0.174-2.051,0.543c-0.348,0.598-0.99,0.969-1.677,0.969c-0.682,0-1.321-0.372-1.67-0.97   c-0.882-1.515-2.517-2.456-4.268-2.456c-1.744,0-3.377,0.939-4.265,2.455c-0.35,0.599-0.991,0.971-1.675,0.971   c-0.687,0-1.329-0.371-1.678-0.97c-0.882-1.515-2.516-2.456-4.265-2.456c-1.746,0-3.38,0.94-4.264,2.453   c-0.351,0.6-0.993,0.973-1.675,0.973c-0.686,0-1.33-0.373-1.676-0.964c-0.876-1.519-2.512-2.462-4.269-2.462   c-1.743,0-3.376,0.939-4.263,2.453c-0.351,0.6-0.993,0.973-1.675,0.973c-0.684,0-1.325-0.372-1.675-0.971   c-0.418-0.717-1.336-0.959-2.052-0.539c-0.715,0.417-0.957,1.336-0.539,2.051c0.885,1.517,2.52,2.459,4.266,2.459   c1.743,0,3.377-0.941,4.264-2.456c0.351-0.599,0.992-0.97,1.675-0.97c0.688,0,1.329,0.368,1.675,0.969   c0.887,1.516,2.523,2.457,4.27,2.457c1.743,0,3.377-0.941,4.265-2.458c0.349-0.597,0.991-0.968,1.675-0.968   c0.695,0,1.32,0.361,1.672,0.966c0.884,1.518,2.521,2.46,4.271,2.46c1.746,0,3.381-0.942,4.265-2.457   c0.351-0.598,0.992-0.969,1.675-0.969c0.687,0,1.328,0.37,1.676,0.967c0.885,1.517,2.518,2.459,4.262,2.459   c1.752,0,3.388-0.943,4.271-2.461C72.506,50.036,72.263,49.118,71.547,48.701z"/><path d="M71.547,57.497c-0.715-0.414-1.635-0.174-2.051,0.543c-0.348,0.598-0.99,0.969-1.677,0.969   c-0.682,0-1.321-0.372-1.669-0.969c-0.882-1.516-2.518-2.457-4.269-2.457c-1.745,0-3.378,0.94-4.265,2.455   c-0.35,0.599-0.991,0.971-1.675,0.971c-0.687,0-1.329-0.371-1.677-0.969c-0.882-1.516-2.516-2.457-4.266-2.457   c-1.747,0-3.381,0.94-4.264,2.453c-0.351,0.6-0.993,0.973-1.675,0.973c-0.686,0-1.33-0.373-1.675-0.964   c-0.875-1.519-2.511-2.462-4.27-2.462c-1.744,0-3.377,0.94-4.263,2.453c-0.351,0.6-0.993,0.973-1.675,0.973   c-0.684,0-1.325-0.372-1.675-0.971c-0.418-0.718-1.336-0.96-2.052-0.539c-0.715,0.417-0.957,1.336-0.539,2.051   c0.885,1.517,2.52,2.459,4.266,2.459c1.743,0,3.377-0.941,4.264-2.457c0.35-0.598,0.992-0.969,1.674-0.969   c0.689,0,1.329,0.368,1.675,0.969c0.887,1.516,2.523,2.457,4.27,2.457c1.743,0,3.377-0.941,4.265-2.458   c0.348-0.597,0.99-0.968,1.674-0.968c0.696,0,1.32,0.36,1.672,0.966c0.884,1.518,2.521,2.46,4.271,2.46   c1.746,0,3.381-0.942,4.266-2.457c0.349-0.598,0.99-0.969,1.674-0.969c0.687,0,1.328,0.37,1.676,0.967   c0.885,1.517,2.518,2.459,4.262,2.459c1.752,0,3.388-0.943,4.271-2.461C72.506,58.832,72.263,57.914,71.547,57.497z"/></g></g><g id="SvgjsG1008" featureKey="VGK2BT-0" transform="matrix(2.2046385167900695,0,0,2.2046385167900695,80.55850534257874,-11.009612490394948)" fill="#fff"><path d="M11.4 12.42 q0.86 0.54 1.31 1.32 t0.45 1.74 q0 2.26 -1.72 3.46 q-1.16 0.84 -3.14 1.06 l-0.08 0 q-0.28 0 -0.46 -0.18 q-0.24 -0.22 -0.24 -0.52 l0 -1.44 q0 -0.26 0.18 -0.46 t0.44 -0.24 q0.94 -0.1 1.46 -0.44 q0.4 -0.24 0.54 -0.62 q0.08 -0.22 0.08 -0.56 q0 -0.22 -0.08 -0.38 t-0.28 -0.3 q-0.58 -0.4 -1.5 -0.68 l-0.32 -0.1 q-1 -0.28 -1.84 -0.46 q-0.18 -0.04 -0.58 -0.14 l-0.22 -0.06 q-0.72 -0.18 -1.52 -0.5 q-1.18 -0.5 -1.94 -1.26 q-0.88 -0.88 -0.88 -2.32 q0 -1.98 1.52 -3.22 q1.04 -0.88 2.92 -1.12 q0.32 -0.04 0.55 0.18 t0.23 0.52 l0 1.44 q0 0.26 -0.16 0.46 t-0.41 0.23 t-0.51 0.11 q-0.58 0.22 -0.82 0.43 t-0.34 0.43 q-0.1 0.34 -0.1 0.64 q0 0.16 0.18 0.34 q0.28 0.28 0.82 0.5 q0.24 0.1 0.84 0.3 l2.5 0.62 l0.12 0.04 q0.94 0.26 1.36 0.4 q0.94 0.32 1.64 0.78 z M8.06 7.9 q-0.24 -0.06 -0.39 -0.25 t-0.15 -0.45 l0 -1.46 q0 -0.32 0.26 -0.54 q0.1 -0.1 0.26 -0.13 t0.3 -0.01 q1.76 0.28 2.86 1.2 q1.5 1.24 1.6 3.16 q0.02 0.28 -0.19 0.51 t-0.51 0.23 l-1.56 0 q-0.26 0 -0.46 -0.18 t-0.22 -0.44 q-0.08 -0.52 -0.34 -0.86 q-0.42 -0.5 -1.3 -0.76 q-0.06 0 -0.08 -0.02 l-0.08 0 z M5.72 17.08 q0.24 0.04 0.4 0.24 t0.16 0.44 l0 1.48 q0 0.32 -0.24 0.54 q-0.2 0.16 -0.46 0.16 l-0.1 0 q-1.86 -0.28 -3.06 -1.22 q-1.56 -1.24 -1.76 -3.46 q-0.04 -0.32 0.18 -0.55 t0.52 -0.23 l1.58 0 q0.28 0 0.48 0.19 t0.22 0.47 q0.06 1 0.98 1.54 q0.42 0.24 1.1 0.4 z M20.64 17.06 q0.24 0.08 0.38 0.27 t0.14 0.43 l0 1.54 q0 0.32 -0.26 0.54 q-0.2 0.16 -0.44 0.16 q-0.1 0 -0.14 -0.02 q-1.86 -0.36 -3.2 -1.72 q-1.8 -1.84 -1.8 -4.84 l0 -7.7 q0 -0.3 0.21 -0.51 t0.49 -0.21 l1.54 0 q0.3 0 0.51 0.21 t0.21 0.51 l0 7.74 q0 1.9 1.08 2.9 q0.56 0.52 1.28 0.7 z M27.54 5 q0.3 0 0.51 0.21 t0.21 0.51 l0 7.7 q0 3 -1.8 4.84 q-1.34 1.36 -3.2 1.72 q-0.04 0.02 -0.14 0.02 q-0.24 0 -0.44 -0.16 q-0.26 -0.2 -0.26 -0.56 l0 -1.54 q0 -0.22 0.14 -0.41 t0.38 -0.27 q0.76 -0.22 1.28 -0.7 q1.08 -0.96 1.08 -2.9 l0 -7.74 q0 -0.3 0.21 -0.51 t0.51 -0.21 l1.52 0 z M38.08 5 q2.38 0 3.84 1.37 t1.46 3.65 t-1.44 3.64 t-3.86 1.36 l-3.82 0 l0 4.08 q0 0.28 -0.21 0.49 t-0.49 0.21 l-1.52 0 q-0.28 0 -0.49 -0.21 t-0.21 -0.49 l0 -6.2 q0 -0.28 0.21 -0.49 t0.49 -0.21 l5.92 0 q1.34 0 1.92 -0.58 q0.58 -0.52 0.58 -1.58 t-0.6 -1.63 t-1.9 -0.57 l-5.92 0 q-0.28 0 -0.49 -0.21 t-0.21 -0.49 l0 -1.44 q0 -0.28 0.21 -0.49 t0.49 -0.21 l6.04 0 z M56 16.96 q0.3 0 0.5 0.21 t0.2 0.51 l0 1.46 q0 0.28 -0.2 0.49 t-0.5 0.21 l-9.88 0 q-0.28 0 -0.49 -0.21 t-0.21 -0.49 l0 -1.46 q0 -0.3 0.21 -0.51 t0.49 -0.21 l9.88 0 z M46.12 13.86 q-0.28 0 -0.49 -0.21 t-0.21 -0.49 l0 -1.5 q0 -0.28 0.21 -0.49 t0.49 -0.21 l8.98 0 q0.3 0 0.51 0.21 t0.21 0.49 l0 1.5 q0 0.28 -0.21 0.49 t-0.51 0.21 l-8.98 0 z M56 5 q0.3 0 0.5 0.21 t0.2 0.49 l0 1.46 q0 0.3 -0.2 0.51 t-0.5 0.21 l-9.88 0 q-0.28 0 -0.49 -0.21 t-0.21 -0.51 l0 -1.46 q0 -0.28 0.21 -0.49 t0.49 -0.21 l9.88 0 z M68.6 14.1 l3.02 4.62 q0.22 0.36 0.02 0.72 q-0.08 0.16 -0.25 0.26 t-0.35 0.1 l-1.82 0 q-0.18 0 -0.34 -0.09 t-0.24 -0.23 l-3.04 -4.82 l-3.56 0 l0 4.44 q0 0.28 -0.21 0.49 t-0.49 0.21 l-1.52 0 q-0.28 0 -0.49 -0.21 t-0.21 -0.49 l0 -6.58 q0 -0.28 0.21 -0.49 t0.49 -0.21 l6.16 0 q1.76 0 2.34 -1 q0.2 -0.32 0.2 -0.92 q0 -0.94 -0.62 -1.48 q-0.64 -0.58 -1.84 -0.58 l-6.24 0 q-0.28 0 -0.49 -0.21 t-0.21 -0.49 l0 -1.44 q0 -0.28 0.21 -0.49 t0.49 -0.21 l6.42 0 q2.34 0 3.74 1.32 q1.46 1.32 1.46 3.58 q0 1.46 -0.64 2.49 t-1.86 1.57 z M80.78 5 q2.38 0 3.84 1.37 t1.46 3.65 t-1.44 3.64 t-3.86 1.36 l-3.82 0 l0 4.08 q0 0.28 -0.21 0.49 t-0.49 0.21 l-1.52 0 q-0.28 0 -0.49 -0.21 t-0.21 -0.49 l0 -6.2 q0 -0.28 0.21 -0.49 t0.49 -0.21 l5.92 0 q1.34 0 1.92 -0.58 q0.58 -0.52 0.58 -1.58 t-0.6 -1.63 t-1.9 -0.57 l-5.92 0 q-0.28 0 -0.49 -0.21 t-0.21 -0.49 l0 -1.44 q0 -0.28 0.21 -0.49 t0.49 -0.21 l6.04 0 z M93.92 5.16 q0.24 0.2 0.24 0.54 l0 1.5 q0 0.26 -0.15 0.45 t-0.41 0.25 q-1.28 0.26 -2.18 1.22 q-1.22 1.28 -1.22 3.33 t1.22 3.35 q0.9 0.94 2.18 1.2 q0.26 0.06 0.41 0.25 t0.15 0.45 l0 1.5 q0 0.32 -0.24 0.54 q-0.22 0.16 -0.46 0.16 l-0.12 0 q-2.32 -0.38 -3.98 -2.1 q-2.08 -2.14 -2.08 -5.33 t2.08 -5.37 q1.62 -1.68 3.98 -2.08 q0.32 -0.06 0.58 0.14 z M100.2 7.1 q2.08 2.18 2.08 5.37 t-2.08 5.33 q-1.66 1.72 -3.98 2.1 l-0.12 0 q-0.24 0 -0.46 -0.16 q-0.24 -0.22 -0.24 -0.54 l0 -1.5 q0 -0.26 0.15 -0.45 t0.41 -0.25 q1.28 -0.26 2.18 -1.2 q1.22 -1.3 1.22 -3.35 t-1.22 -3.33 q-0.9 -0.96 -2.18 -1.22 q-0.26 -0.06 -0.41 -0.25 t-0.15 -0.45 l0 -1.5 q0 -0.34 0.25 -0.54 t0.57 -0.14 q2.36 0.4 3.98 2.08 z M110.48 5.16 q0.24 0.2 0.24 0.54 l0 1.5 q0 0.26 -0.15 0.45 t-0.41 0.25 q-1.28 0.26 -2.18 1.22 q-1.22 1.28 -1.22 3.33 t1.22 3.35 q0.9 0.94 2.18 1.2 q0.26 0.06 0.41 0.25 t0.15 0.45 l0 1.5 q0 0.32 -0.24 0.54 q-0.22 0.16 -0.46 0.16 l-0.12 0 q-2.32 -0.38 -3.98 -2.1 q-2.08 -2.14 -2.08 -5.33 t2.08 -5.37 q1.62 -1.68 3.98 -2.08 q0.32 -0.06 0.58 0.14 z M116.76 7.1 q2.08 2.18 2.08 5.37 t-2.08 5.33 q-1.66 1.72 -3.98 2.1 l-0.12 0 q-0.24 0 -0.46 -0.16 q-0.24 -0.22 -0.24 -0.54 l0 -1.5 q0 -0.26 0.15 -0.45 t0.41 -0.25 q1.28 -0.26 2.18 -1.2 q1.22 -1.3 1.22 -3.35 t-1.22 -3.33 q-0.9 -0.96 -2.18 -1.22 q-0.26 -0.06 -0.41 -0.25 t-0.15 -0.45 l0 -1.5 q0 -0.34 0.25 -0.54 t0.57 -0.14 q2.36 0.4 3.98 2.08 z M123.46000000000001 5 q0.28 0 0.49 0.21 t0.21 0.49 l0 13.4 q0 0.28 -0.21 0.49 t-0.49 0.21 l-1.52 0 q-0.28 0 -0.49 -0.21 t-0.21 -0.49 l0 -13.4 q0 -0.28 0.21 -0.49 t0.49 -0.21 l1.52 0 z M130.76 16.94 q0.3 0 0.5 0.21 t0.2 0.49 l0 1.46 q0 0.28 -0.2 0.49 t-0.5 0.21 l-4.66 0 q-0.3 0 -0.5 -0.21 t-0.2 -0.49 l0 -1.46 q0 -0.28 0.2 -0.49 t0.5 -0.21 l4.66 0 z"/></g>
			</g>
		</svg>
	